<?xml version="1.0" standalone="no"?><!DOCTYPE svg PUBLIC "-//W3C//DTD SVG 1.1//EN" "http://www.w3.org/Graphics/SVG/1.1/DTD/svg11.dtd"><svg t="1637552405419" class="icon" viewBox="0 0 1024 1024" version="1.1" xmlns="http://www.w3.org/2000/svg" p-id="3994" xmlns:xlink="http://www.w3.org/1999/xlink" width="200" height="200"><defs><style type="text/css"></style></defs><path d="M693.282133 102.4l-513.706666 527.394133c-3.908267 4.061867-4.727467 4.864-6.2464 8.4992l-2.3552 6.0928-3.515734 10.410667-13.0048 40.516267-25.821866 82.090666-41.762134 134.0928c-7.953067 25.6512 15.377067 49.664 40.823467 43.229867l43.195733-14.062933 164.420267-54.254934 44.8-15.138133 8.96-3.157333c1.314133-0.494933 2.389333-0.904533 3.345067-1.297067l3.874133-1.604267c3.584-1.553067 4.386133-2.389333 8.260267-6.212266l514.048-527.8208a68.266667 68.266667 0 0 0 0-95.266134L789.845333 103.68a68.266667 68.266667 0 0 0-96.546133-1.262933zM233.642667 672.170667L740.9152 151.313067l128.785067 132.232533-508.3648 521.966933-27.921067 9.557334-94.122667 31.232-67.601066 22.254933 44.305066-141.448533 15.4112-48.213334 2.218667-6.741333z" fill="#2c2c2c" p-id="3995"></path><path d="M578.338133 240.008533a34.133333 34.133333 0 0 1 46.08-1.9968l2.184534 1.9968 153.6 153.6a34.133333 34.133333 0 0 1-46.097067 50.2784l-2.167467-1.9968-153.6-153.6a34.133333 34.133333 0 0 1 0-48.2816z" fill="#2c2c2c" p-id="3996"></path><path d="M870.4 853.333333v34.133334a34.133333 34.133333 0 0 1-34.133333 34.133333H529.066667a34.133333 34.133333 0 0 1-34.133334-34.133333v-34.133334h375.466667z" fill="#2c2c2c" p-id="3997"></path></svg>