<?xml version="1.0" standalone="no"?><!DOCTYPE svg PUBLIC "-//W3C//DTD SVG 1.1//EN" "http://www.w3.org/Graphics/SVG/1.1/DTD/svg11.dtd"><svg t="1634374327595" class="icon" viewBox="0 0 1024 1024" version="1.1" xmlns="http://www.w3.org/2000/svg" p-id="9037" xmlns:xlink="http://www.w3.org/1999/xlink" width="200" height="200"><defs><style type="text/css"></style></defs><path d="M483.251 600.019L223.55 447.75c-12.57-7.372-28.734-3.154-36.102 9.415-7.37 12.569-3.155 28.733 9.415 36.102l257.012 150.692c18.629 17.302 42.438 25.954 66.246 25.954 23.958 0 47.915-8.76 66.595-26.279l245.765-155.289c12.318-7.783 15.993-24.078 8.21-36.395-7.782-12.317-24.075-15.992-36.395-8.211L556.242 600.474a26.379 26.379 0 0 0-4.563 3.648c-17.401 17.401-45.716 17.401-63.117 0a26.342 26.342 0 0 0-5.311-4.103z" fill="#E75934" p-id="9038"></path><path d="M945.357 355.456L527.861 98.998a26.383 26.383 0 0 0-27.617 0L82.748 355.456a26.38 26.38 0 0 0-12.573 22.479v349.562c0 84.374 68.643 153.016 153.016 153.016h581.725c84.374 0 153.016-68.642 153.016-153.016V377.935a26.384 26.384 0 0 0-12.575-22.479z m-40.19 372.042c0 55.279-44.973 100.252-100.252 100.252H223.19c-55.279 0-100.252-44.973-100.252-100.252V392.692L514.053 152.44l391.114 240.251v334.807z" fill="#E75934" p-id="9039"></path></svg>