<?xml version="1.0" standalone="no"?><!DOCTYPE svg PUBLIC "-//W3C//DTD SVG 1.1//EN" "http://www.w3.org/Graphics/SVG/1.1/DTD/svg11.dtd"><svg t="1634374262550" class="icon" viewBox="0 0 1024 1024" version="1.1" xmlns="http://www.w3.org/2000/svg" p-id="8179" xmlns:xlink="http://www.w3.org/1999/xlink" width="200" height="200"><defs><style type="text/css"></style></defs><path d="M896 298.666667a128 128 0 1 0 0-256 128 128 0 0 0 0 256z" p-id="8180"></path><path d="M938.666667 853.333333V379.733333a214.272 214.272 0 0 1-85.333334 0V810.666667H170.666667V308.352l341.333333 303.402667 284.117333-252.544a214.272 214.272 0 0 1-66.56-55.04L512 497.578667 192.213333 213.333333H686.933333a214.272 214.272 0 0 1 0-85.333333H128a42.666667 42.666667 0 0 0-42.666667 42.666667v682.666666a42.666667 42.666667 0 0 0 42.666667 42.666667h768a42.666667 42.666667 0 0 0 42.666667-42.666667z" p-id="8181"></path></svg>